<svg enable-background="new 0 0 260 96.4" viewBox="0 0 260 96.4" xmlns="http://www.w3.org/2000/svg"><g fill="#34a853"><path d="m5.3 41.4h-5.3v-41.4h14.1c3.5 0 6.5 1.2 9.1 3.5s3.8 5.3 3.8 8.8-1.3 6.5-3.8 8.8c-2.6 2.3-5.6 3.5-9.1 3.5h-8.8zm0-21.9h8.9c2.2 0 4-.8 5.4-2.3 1.3-1.5 2-3.2 2-5s-.7-3.5-2-5-3.1-2.3-5.4-2.3h-8.9z"/><path d="m44.1 42.3c-4.3 0-7.7-1.4-10.4-4.3-2.7-2.8-4-6.4-4-10.8 0-4.1 1.3-7.7 3.9-10.6 2.6-3 5.9-4.4 10-4.4 4.2 0 7.6 1.4 10.1 4.1s3.8 6.4 3.8 11l-.1 1h-22.5c.2 2.8 1.1 5.1 2.9 6.8s3.8 2.5 6.2 2.5c3.8 0 6.4-1.6 7.7-4.9l4.7 2c-.9 2.2-2.4 4-4.6 5.5-2.1 1.3-4.7 2.1-7.7 2.1zm7.6-18.5c-.1-1.6-.9-3.2-2.2-4.6-1.4-1.5-3.4-2.2-6.1-2.2-2 0-3.7.6-5.1 1.8s-2.4 2.9-3 5z"/><path d="m65.7 16.4c2.7-2.9 6.2-4.3 10.5-4.3 4.2 0 7.7 1.4 10.5 4.3 2.7 2.9 4.1 6.5 4.1 10.8s-1.4 7.9-4.1 10.8-6.2 4.3-10.5 4.3c-4.2 0-7.7-1.4-10.5-4.3-2.7-2.9-4.1-6.5-4.1-10.8s1.4-7.9 4.1-10.8zm4 18.2c1.8 1.9 4 2.8 6.5 2.8s4.7-.9 6.5-2.8 2.7-4.3 2.7-7.4-.9-5.6-2.7-7.4c-1.8-1.9-4-2.8-6.5-2.8s-4.7.9-6.5 2.8-2.7 4.3-2.7 7.4c-.1 3.1.8 5.6 2.7 7.4z"/><path d="m111.3 42.3c-2.2 0-4.1-.5-5.8-1.4s-3-2.1-3.8-3.5h-.2l.2 3.9v12.5h-5.3v-40.7h5.1v3.9h.2c.8-1.4 2.1-2.5 3.8-3.5 1.7-.9 3.6-1.4 5.8-1.4 3.7 0 6.8 1.4 9.5 4.3s4 6.5 4 10.7-1.3 7.9-4 10.7c-2.7 3-5.9 4.5-9.5 4.5zm-.9-4.9c2.5 0 4.6-.9 6.4-2.8s2.7-4.3 2.7-7.4-.9-5.6-2.7-7.4c-1.8-1.9-3.9-2.8-6.4-2.8s-4.6.9-6.4 2.8c-1.8 1.8-2.6 4.3-2.6 7.5 0 3.1.9 5.6 2.6 7.4 1.8 1.8 3.9 2.7 6.4 2.7z"/><path d="m135.8 41.4h-5.3v-41.4h5.3z"/><path d="m156 42.3c-4.3 0-7.7-1.4-10.4-4.3-2.7-2.8-4-6.4-4-10.8 0-4.1 1.3-7.7 3.9-10.6 2.6-3 5.9-4.4 10-4.4 4.2 0 7.6 1.4 10.1 4.1s3.8 6.4 3.8 11l-.1 1h-22.3c.2 2.8 1.1 5.1 2.9 6.8s3.8 2.5 6.2 2.5c3.8 0 6.4-1.6 7.7-4.9l4.7 2c-.9 2.2-2.4 4-4.6 5.5-2.2 1.3-4.8 2.1-7.9 2.1zm7.6-18.5c-.1-1.6-.9-3.2-2.2-4.6-1.4-1.5-3.4-2.2-6.1-2.2-2 0-3.7.6-5.1 1.8s-2.4 2.9-3 5z"/><path d="m212.1 41.4 15.5-41.4h6l15.6 41.4h-5.9l-4-11.2h-17.3l-4 11.2zm11.7-16.2h13.7l-6.8-18.7h-.2z"/><path d="m254.7 41.4v-41.4h5.3v41.4z"/></g><path d="m0 95.5v-41.4h14.1c3.5 0 6.5 1.2 9.1 3.5s3.8 5.3 3.8 8.8c0 2.9-.9 5.4-2.8 7.7-1.9 2.2-4.2 3.6-7 4.2l-.2.2 11.6 16.8v.2h-6.3l-11.1-16.8h-5.9v16.7h-5.3zm5.3-21.7h8.5c2.1 0 3.9-.7 5.5-2.1 1.5-1.4 2.3-3.1 2.3-5.3 0-1.8-.7-3.5-2-5s-3.1-2.3-5.4-2.3h-8.9z" fill="#00695c"/><path d="m45.6 96.4c-4.3 0-7.7-1.4-10.4-4.3-2.7-2.8-4-6.4-4-10.8 0-4.1 1.3-7.7 3.9-10.6 2.6-3 5.9-4.4 10-4.4 4.2 0 7.6 1.4 10.1 4.1s3.8 6.4 3.8 11l-.1 1h-22.5c.2 2.8 1.1 5.1 2.9 6.8s3.8 2.5 6.2 2.5c3.8 0 6.4-1.6 7.7-4.9l4.7 2c-.9 2.2-2.4 4-4.6 5.5-2.1 1.4-4.7 2.1-7.7 2.1zm7.6-18.5c-.1-1.6-.9-3.2-2.2-4.6-1.4-1.5-3.4-2.2-6.1-2.2-2 0-3.7.6-5.1 1.8s-2.4 2.9-3 5z" fill="#00695c"/><path d="m74.8 96.4c-3.2 0-5.8-.8-7.8-2.3-2.1-1.5-3.6-3.5-4.5-5.8l4.7-2c1.5 3.5 4.1 5.3 7.7 5.3 1.7 0 3-.4 4.1-1.1s1.6-1.7 1.6-2.9c0-1.8-1.3-3.1-3.9-3.8l-5.7-1.2c-1.8-.5-3.5-1.3-5.1-2.6s-2.4-3-2.4-5.2c0-2.5 1.1-4.5 3.3-6.1s4.8-2.3 7.9-2.3c2.5 0 4.7.6 6.7 1.7s3.4 2.8 4.2 4.9l-4.6 1.9c-1-2.5-3.2-3.8-6.5-3.8-1.6 0-2.9.3-4 1s-1.6 1.5-1.6 2.7c0 1.6 1.3 2.7 3.8 3.3l5.6 1.3c2.7.6 4.6 1.7 5.9 3.2s1.9 3.2 1.9 5.1c0 2.5-1 4.7-3.1 6.4-2.2 1.5-4.9 2.3-8.2 2.3z" fill="#00695c"/><path d="m104.3 96.4c-4.3 0-7.7-1.4-10.4-4.3-2.7-2.8-4-6.4-4-10.8 0-4.1 1.3-7.7 3.9-10.6 2.6-3 5.9-4.4 10-4.4 4.2 0 7.6 1.4 10.1 4.1s3.8 6.4 3.8 11l-.1 1h-22.4c.2 2.8 1.1 5.1 2.9 6.8s3.8 2.5 6.2 2.5c3.8 0 6.4-1.6 7.7-4.9l4.7 2c-.9 2.2-2.4 4-4.6 5.5-2.1 1.4-4.7 2.1-7.8 2.1zm7.7-18.5c-.1-1.6-.9-3.2-2.2-4.6-1.4-1.5-3.4-2.2-6.1-2.2-2 0-3.7.6-5.1 1.8s-2.4 2.9-3 5z" fill="#00695c"/><path d="m132.1 96.4c-3 0-5.5-.9-7.5-2.6s-3-4-3-6.9c0-3.1 1.2-5.5 3.6-7.2 2.4-1.8 5.3-2.6 8.8-2.6 3.1 0 5.7.6 7.7 1.7v-.8c0-2.1-.7-3.7-2.1-5s-3.2-1.9-5.3-1.9c-1.5 0-2.9.4-4.2 1.1s-2.1 1.7-2.6 3l-4.9-2.1c.7-1.7 1.9-3.3 3.9-4.7 1.9-1.4 4.5-2.2 7.6-2.2 3.6 0 6.6 1.1 9 3.2s3.6 5.1 3.6 9v17.1h-5.1v-3.9h-.2c-2.1 3.2-5.2 4.8-9.3 4.8zm.8-4.8c2.2 0 4.2-.8 6-2.5 1.8-1.6 2.7-3.6 2.7-5.8-1.5-1.2-3.8-1.8-6.8-1.8-2.6 0-4.5.6-5.8 1.7s-2 2.4-2 3.9c0 1.4.6 2.5 1.8 3.3s2.6 1.2 4.1 1.2z" fill="#00695c"/><path d="m159 95.5h-5.3v-28.3h5.1v4.6h.2c.5-1.5 1.6-2.8 3.3-3.8s3.3-1.5 4.9-1.5 2.9.2 4 .7l-2 5c-.7-.3-1.6-.4-2.8-.4-1.9 0-3.6.8-5.1 2.3s-2.2 3.5-2.2 6v15.4z" fill="#00695c"/><path d="m187.2 96.4c-4.2 0-7.7-1.4-10.5-4.3-2.7-2.9-4.1-6.5-4.1-10.8s1.4-7.9 4.1-10.8 6.2-4.3 10.5-4.3c3.2 0 5.8.8 7.9 2.3s3.6 3.5 4.6 5.8l-4.9 2c-1.5-3.5-4.1-5.3-7.9-5.3-2.3 0-4.4 1-6.2 2.9s-2.7 4.4-2.7 7.3c0 3 .9 5.4 2.7 7.3s3.9 2.9 6.2 2.9c4 0 6.7-1.8 8.2-5.3l4.7 2c-1 2.3-2.5 4.2-4.6 5.8s-4.9 2.5-8 2.5z" fill="#00695c"/><path d="m210.2 54.1v13.1l-.2 3.9h.2c.8-1.3 2-2.5 3.6-3.4 1.7-.9 3.4-1.4 5.3-1.4 3.5 0 6.2 1.1 8 3.2 1.8 2.2 2.8 5 2.8 8.7v17.3h-5.3v-16.5c0-5.2-2.3-7.9-7-7.9-2.2 0-4 .9-5.4 2.6-1.4 1.8-2.1 3.8-2.1 6.1v15.7h-5.3v-41.4z" fill="#00695c"/><path d="m185.6 28.2h-4.2v-4.4h4.2c2.7 0 4.9-2.2 4.9-4.9v-4.2h4.4v4.2c-.1 5.1-4.2 9.3-9.3 9.3z" fill="#34a853"/><path d="m194.8 37.3h-4.4v-4.2c0-5.1 4.2-9.3 9.3-9.3h4.2v4.4h-4.2c-2.7 0-4.9 2.2-4.9 4.9z" fill="#00695c"/></svg>