<svg width="54" height="19" viewBox="0 0 54 19" fill="none" xmlns="http://www.w3.org/2000/svg">
<g clip-path="url(#clip0_1212_25041)">
<path d="M14.7612 9.32233V14.7608H3.8844V9.32233H2.33057V14.7608C2.33057 15.6154 3.02979 16.3146 3.8844 16.3146H14.7612C15.6158 16.3146 16.3151 15.6154 16.3151 14.7608V9.32233H14.7612ZM10.0997 9.84287L12.112 7.83842L13.2074 8.93387L9.32282 12.8185L5.43823 8.93387L6.53369 7.83842L8.5459 9.84287V2.33008H10.0997V9.84287Z" fill="#F439A0"/>
</g>
<path d="M32.0764 6.42075C32.0267 6.00139 31.8253 5.67584 31.4722 5.44409C31.119 5.21233 30.6859 5.09646 30.1727 5.09646C29.7975 5.09646 29.4692 5.15716 29.1878 5.27855C28.9091 5.39994 28.6912 5.56686 28.5339 5.7793C28.3794 5.99173 28.3022 6.23314 28.3022 6.50352C28.3022 6.72975 28.356 6.92426 28.4636 7.08703C28.5739 7.24705 28.7146 7.38086 28.8857 7.48846C29.0567 7.5933 29.2361 7.6802 29.4237 7.74918C29.6113 7.81539 29.7837 7.86919 29.941 7.91058L30.8018 8.14233C31.0225 8.20026 31.268 8.28027 31.5384 8.38235C31.8115 8.48444 32.0722 8.62376 32.3205 8.80033C32.5716 8.97415 32.7785 9.19762 32.9413 9.47076C33.1041 9.74389 33.1855 10.0791 33.1855 10.4764C33.1855 10.9344 33.0655 11.3482 32.8254 11.7179C32.5882 12.0876 32.2405 12.3814 31.7826 12.5994C31.3273 12.8173 30.7742 12.9263 30.1231 12.9263C29.5161 12.9263 28.9905 12.8284 28.5463 12.6325C28.1049 12.4366 27.7573 12.1635 27.5034 11.8131C27.2524 11.4627 27.1103 11.0558 27.0772 10.5923H28.1366C28.1642 10.9123 28.2718 11.1772 28.4594 11.3868C28.6498 11.5938 28.8898 11.7483 29.1795 11.8503C29.4719 11.9497 29.7865 11.9993 30.1231 11.9993C30.5148 11.9993 30.8666 11.9359 31.1783 11.809C31.4901 11.6793 31.737 11.5 31.9191 11.271C32.1012 11.0392 32.1923 10.7688 32.1923 10.4598C32.1923 10.1784 32.1136 9.94943 31.9564 9.77286C31.7991 9.59629 31.5922 9.45282 31.3356 9.34247C31.079 9.23211 30.8018 9.13554 30.5038 9.05278L29.4609 8.75481C28.7988 8.56444 28.2746 8.29269 27.8883 7.93955C27.5021 7.5864 27.3089 7.12428 27.3089 6.55318C27.3089 6.07864 27.4372 5.6648 27.6938 5.31166C27.9531 4.95575 28.3008 4.67986 28.7367 4.48397C29.1754 4.28533 29.6651 4.18601 30.2058 4.18601C30.7521 4.18601 31.2377 4.28395 31.6625 4.47984C32.0874 4.67296 32.424 4.93782 32.6723 5.27441C32.9234 5.611 33.0558 5.99311 33.0696 6.42075H32.0764ZM36.611 12.9263C36.2082 12.9263 35.8427 12.8505 35.5144 12.6987C35.186 12.5442 34.9253 12.3221 34.7322 12.0324C34.5391 11.74 34.4425 11.3868 34.4425 10.973C34.4425 10.6088 34.5142 10.3136 34.6577 10.0874C34.8012 9.85839 34.9929 9.67906 35.233 9.54939C35.473 9.41972 35.7378 9.32315 36.0275 9.2597C36.32 9.19348 36.6138 9.14106 36.909 9.10244C37.2953 9.05278 37.6084 9.01553 37.8484 8.9907C38.0912 8.96311 38.2678 8.91759 38.3781 8.85413C38.4913 8.79068 38.5478 8.68032 38.5478 8.52306V8.48995C38.5478 8.08163 38.4361 7.76435 38.2126 7.53812C37.9919 7.31189 37.6567 7.19877 37.207 7.19877C36.7407 7.19877 36.3752 7.30085 36.1103 7.50501C35.8454 7.70917 35.6592 7.92713 35.5516 8.15888L34.6246 7.82781C34.7901 7.44156 35.0109 7.14083 35.2868 6.92564C35.5654 6.70768 35.8689 6.55594 36.1972 6.47041C36.5283 6.38212 36.8538 6.33798 37.1739 6.33798C37.378 6.33798 37.6125 6.36281 37.8774 6.41247C38.145 6.45937 38.403 6.55732 38.6513 6.7063C38.9023 6.85528 39.1106 7.08014 39.2762 7.38086C39.4417 7.68158 39.5245 8.08439 39.5245 8.58928V12.7773H38.5478V11.9166H38.4982C38.4319 12.0545 38.3216 12.2021 38.1671 12.3594C38.0126 12.5166 37.807 12.6504 37.5505 12.7608C37.2939 12.8711 36.9807 12.9263 36.611 12.9263ZM36.76 12.049C37.1463 12.049 37.4718 11.9731 37.7367 11.8214C38.0043 11.6696 38.2057 11.4737 38.3409 11.2337C38.4788 10.9937 38.5478 10.7412 38.5478 10.4764V9.58249C38.5064 9.63215 38.4154 9.67768 38.2747 9.71906C38.1367 9.75769 37.9767 9.79217 37.7946 9.82252C37.6153 9.85011 37.4401 9.87494 37.269 9.89701C37.1008 9.91632 36.9642 9.93288 36.8593 9.94667C36.6055 9.97978 36.3683 10.0336 36.1475 10.1081C35.9296 10.1798 35.753 10.2888 35.6178 10.435C35.4854 10.5785 35.4192 10.7744 35.4192 11.0227C35.4192 11.362 35.5447 11.6186 35.7958 11.7924C36.0496 11.9635 36.371 12.049 36.76 12.049ZM46.2773 6.42075L43.9267 12.7773H42.9335L40.5829 6.42075H41.6423L43.397 11.4862H43.4632L45.2179 6.42075H46.2773ZM50.004 12.9098C49.3915 12.9098 48.8631 12.7746 48.419 12.5042C47.9775 12.2311 47.6368 11.8503 47.3968 11.362C47.1595 10.8709 47.0409 10.2998 47.0409 9.64871C47.0409 8.9976 47.1595 8.42374 47.3968 7.92713C47.6368 7.42776 47.9706 7.03875 48.3983 6.7601C48.8287 6.47869 49.3308 6.33798 49.9046 6.33798C50.2357 6.33798 50.5626 6.39316 50.8854 6.50352C51.2082 6.61387 51.5021 6.79321 51.7669 7.04151C52.0318 7.28706 52.2428 7.61261 52.4001 8.01817C52.5574 8.42374 52.636 8.92311 52.636 9.51628V9.93012H47.7361V9.08588H51.6428C51.6428 8.72722 51.571 8.40718 51.4276 8.12577C51.2869 7.84436 51.0855 7.62227 50.8234 7.45949C50.564 7.29671 50.2578 7.21532 49.9046 7.21532C49.5156 7.21532 49.179 7.31189 48.8949 7.50501C48.6135 7.69538 48.3969 7.94368 48.2451 8.24993C48.0934 8.55617 48.0175 8.88448 48.0175 9.23487V9.79769C48.0175 10.2777 48.1003 10.6847 48.2658 11.0185C48.4341 11.3496 48.6673 11.602 48.9652 11.7758C49.2632 11.9469 49.6094 12.0324 50.004 12.0324C50.2605 12.0324 50.4923 11.9966 50.6992 11.9248C50.9089 11.8503 51.0896 11.74 51.2413 11.5938C51.3931 11.4448 51.5103 11.2599 51.5931 11.0392L52.5367 11.3041C52.4373 11.6241 52.2704 11.9055 52.0359 12.1483C51.8014 12.3883 51.5117 12.5759 51.1669 12.7111C50.822 12.8436 50.4344 12.9098 50.004 12.9098Z" fill="#F439A0"/>
<defs>
<clipPath id="clip0_1212_25041">
<rect width="18.646" height="18.646" fill="white"/>
</clipPath>
</defs>
</svg>
