<svg width="58" height="18" viewBox="0 0 58 18" fill="none" xmlns="http://www.w3.org/2000/svg">
<g clip-path="url(#clip0_1212_25063)">
<path d="M13.5 12.06C12.93 12.06 12.42 12.285 12.03 12.6375L6.6825 9.525C6.72 9.3525 6.75 9.18 6.75 9C6.75 8.82 6.72 8.6475 6.6825 8.475L11.97 5.3925C12.375 5.7675 12.9075 6 13.5 6C14.745 6 15.75 4.995 15.75 3.75C15.75 2.505 14.745 1.5 13.5 1.5C12.255 1.5 11.25 2.505 11.25 3.75C11.25 3.93 11.28 4.1025 11.3175 4.275L6.03 7.3575C5.625 6.9825 5.0925 6.75 4.5 6.75C3.255 6.75 2.25 7.755 2.25 9C2.25 10.245 3.255 11.25 4.5 11.25C5.0925 11.25 5.625 11.0175 6.03 10.6425L11.37 13.7625C11.3325 13.92 11.31 14.085 11.31 14.25C11.31 15.4575 12.2925 16.44 13.5 16.44C14.7075 16.44 15.69 15.4575 15.69 14.25C15.69 13.0425 14.7075 12.06 13.5 12.06Z" fill="#F439A0"/>
</g>
<path d="M31.6613 6.64341C31.6117 6.22405 31.4103 5.89849 31.0571 5.66674C30.704 5.43499 30.2708 5.31911 29.7577 5.31911C29.3825 5.31911 29.0541 5.37981 28.7727 5.5012C28.4941 5.6226 28.2761 5.78951 28.1189 6.00195C27.9644 6.21439 27.8871 6.4558 27.8871 6.72617C27.8871 6.95241 27.9409 7.14691 28.0485 7.30969C28.1589 7.46971 28.2996 7.60352 28.4706 7.71111C28.6417 7.81595 28.821 7.90286 29.0086 7.97183C29.1962 8.03805 29.3687 8.09185 29.5259 8.13323L30.3867 8.36498C30.6074 8.42292 30.853 8.50293 31.1233 8.60501C31.3965 8.70709 31.6572 8.84642 31.9055 9.02299C32.1566 9.1968 32.3635 9.42028 32.5263 9.69341C32.689 9.96655 32.7704 10.3018 32.7704 10.699C32.7704 11.157 32.6504 11.5709 32.4104 11.9406C32.1731 12.3103 31.8255 12.6041 31.3675 12.822C30.9123 13.04 30.3591 13.149 29.708 13.149C29.101 13.149 28.5755 13.051 28.1313 12.8552C27.6898 12.6593 27.3422 12.3861 27.0884 12.0358C26.8373 11.6854 26.6953 11.2784 26.6621 10.8149H27.7216C27.7492 11.135 27.8568 11.3998 28.0444 11.6095C28.2347 11.8164 28.4748 11.9709 28.7645 12.073C29.0569 12.1723 29.3714 12.222 29.708 12.222C30.0998 12.222 30.4515 12.1585 30.7633 12.0316C31.0751 11.9019 31.322 11.7226 31.5041 11.4936C31.6862 11.2619 31.7772 10.9915 31.7772 10.6825C31.7772 10.4011 31.6986 10.1721 31.5413 9.99552C31.3841 9.81894 31.1771 9.67548 30.9206 9.56512C30.664 9.45476 30.3867 9.3582 30.0887 9.27543L29.0459 8.97747C28.3837 8.7871 27.8595 8.51535 27.4733 8.1622C27.087 7.80906 26.8939 7.34693 26.8939 6.77583C26.8939 6.3013 27.0222 5.88746 27.2788 5.53431C27.5381 5.17841 27.8857 4.90252 28.3216 4.70663C28.7603 4.50799 29.25 4.40867 29.7908 4.40867C30.3371 4.40867 30.8226 4.50661 31.2475 4.70249C31.6724 4.89562 32.009 5.16048 32.2573 5.49707C32.5083 5.83366 32.6408 6.21577 32.6546 6.64341H31.6613ZM35.3021 9.17611V13H34.3254V4.52454H35.3021V7.63662H35.3849C35.5339 7.30831 35.7573 7.04759 36.0553 6.85446C36.356 6.65858 36.7561 6.56064 37.2554 6.56064C37.6886 6.56064 38.0679 6.64754 38.3935 6.82136C38.7191 6.99241 38.9715 7.25589 39.1508 7.61179C39.3329 7.96494 39.424 8.41464 39.424 8.96091V13H38.4473V9.02713C38.4473 8.52224 38.3162 8.13185 38.0541 7.85596C37.7948 7.57731 37.4348 7.43798 36.974 7.43798C36.654 7.43798 36.3671 7.50557 36.1132 7.64076C35.8622 7.77595 35.6635 7.97321 35.5173 8.23255C35.3738 8.49189 35.3021 8.80641 35.3021 9.17611ZM43.0813 13.149C42.6785 13.149 42.3129 13.0731 41.9846 12.9214C41.6563 12.7669 41.3956 12.5448 41.2024 12.2551C41.0093 11.9626 40.9128 11.6095 40.9128 11.1957C40.9128 10.8315 40.9845 10.5363 41.1279 10.31C41.2714 10.081 41.4632 9.90171 41.7032 9.77204C41.9432 9.64237 42.2081 9.54581 42.4978 9.48235C42.7902 9.41614 43.084 9.36372 43.3792 9.32509C43.7655 9.27543 44.0786 9.23819 44.3187 9.21336C44.5614 9.18577 44.738 9.14024 44.8484 9.07679C44.9615 9.01333 45.0181 8.90298 45.0181 8.74572V8.71261C45.0181 8.30429 44.9063 7.98701 44.6828 7.76078C44.4621 7.53454 44.1269 7.42143 43.6772 7.42143C43.2109 7.42143 42.8454 7.52351 42.5805 7.72767C42.3157 7.93183 42.1294 8.14979 42.0218 8.38154L41.0948 8.05046C41.2604 7.66421 41.4811 7.36349 41.757 7.14829C42.0356 6.93034 42.3391 6.77859 42.6674 6.69307C42.9985 6.60478 43.3241 6.56064 43.6441 6.56064C43.8483 6.56064 44.0828 6.58547 44.3476 6.63513C44.6152 6.68203 44.8732 6.77997 45.1215 6.92896C45.3726 7.07794 45.5809 7.30279 45.7464 7.60352C45.9119 7.90424 45.9947 8.30705 45.9947 8.81193V13H45.0181V12.1392H44.9684C44.9022 12.2772 44.7918 12.4248 44.6373 12.582C44.4828 12.7393 44.2773 12.8731 44.0207 12.9834C43.7641 13.0938 43.451 13.149 43.0813 13.149ZM43.2303 12.2716C43.6165 12.2716 43.9421 12.1958 44.2069 12.044C44.4745 11.8923 44.6759 11.6964 44.8111 11.4564C44.9491 11.2163 45.0181 10.9639 45.0181 10.699V9.80515C44.9767 9.85481 44.8856 9.90033 44.7449 9.94172C44.607 9.98034 44.447 10.0148 44.2649 10.0452C44.0855 10.0728 43.9103 10.0976 43.7393 10.1197C43.571 10.139 43.4344 10.1555 43.3296 10.1693C43.0758 10.2024 42.8385 10.2562 42.6178 10.3307C42.3998 10.4025 42.2232 10.5114 42.0881 10.6577C41.9556 10.8011 41.8894 10.997 41.8894 11.2453C41.8894 11.5847 42.0149 11.8412 42.266 12.0151C42.5198 12.1861 42.8413 12.2716 43.2303 12.2716ZM47.7773 13V6.64341H48.7209V7.60352H48.7871C48.903 7.289 49.1127 7.0338 49.4161 6.83791C49.7196 6.64203 50.0617 6.54408 50.4425 6.54408C50.5142 6.54408 50.6039 6.54546 50.7115 6.54822C50.8191 6.55098 50.9005 6.55512 50.9556 6.56064V7.55386C50.9225 7.54558 50.8467 7.53316 50.728 7.51661C50.6121 7.4973 50.4894 7.48764 50.3597 7.48764C50.0507 7.48764 49.7748 7.55248 49.532 7.68215C49.292 7.80906 49.1016 7.98563 48.9609 8.21186C48.823 8.43534 48.754 8.69054 48.754 8.97747V13H47.7773ZM54.585 13.1324C53.9725 13.1324 53.4442 12.9972 53 12.7269C52.5586 12.4537 52.2178 12.073 51.9778 11.5847C51.7406 11.0936 51.6219 10.5225 51.6219 9.87136C51.6219 9.22025 51.7406 8.64639 51.9778 8.14979C52.2178 7.65042 52.5517 7.26141 52.9793 6.98275C53.4097 6.70134 53.9118 6.56064 54.4857 6.56064C54.8168 6.56064 55.1437 6.61582 55.4665 6.72617C55.7893 6.83653 56.0831 7.01586 56.348 7.26417C56.6128 7.50971 56.8239 7.83527 56.9812 8.24083C57.1384 8.64639 57.217 9.14576 57.217 9.73893V10.1528H52.3172V9.30854H56.2238C56.2238 8.94988 56.1521 8.62984 56.0086 8.34843C55.8679 8.06702 55.6665 7.84492 55.4044 7.68215C55.1451 7.51937 54.8388 7.43798 54.4857 7.43798C54.0967 7.43798 53.7601 7.53454 53.4759 7.72767C53.1945 7.91804 52.9779 8.16634 52.8262 8.47258C52.6745 8.77882 52.5986 9.10714 52.5986 9.45752V10.0203C52.5986 10.5004 52.6813 10.9073 52.8469 11.2412C53.0152 11.5722 53.2483 11.8247 53.5463 11.9985C53.8442 12.1696 54.1905 12.2551 54.585 12.2551C54.8416 12.2551 55.0733 12.2192 55.2803 12.1475C55.4899 12.073 55.6707 11.9626 55.8224 11.8164C55.9741 11.6674 56.0914 11.4826 56.1742 11.2619L57.1177 11.5267C57.0184 11.8468 56.8515 12.1282 56.617 12.371C56.3825 12.611 56.0928 12.7986 55.7479 12.9338C55.403 13.0662 55.0154 13.1324 54.585 13.1324Z" fill="#F439A0"/>
<defs>
<clipPath id="clip0_1212_25063">
<rect width="18" height="18" fill="white"/>
</clipPath>
</defs>
</svg>
