<svg height="42" width="120" xmlns="http://www.w3.org/2000/svg"><g transform="matrix(.9937807 0 0 .9936694 -177.69409 -74.436409)"><path d="m182.23532 75.39014 114.06396.20312c1.59375 0 3.01758-.23682 3.01758 3.18018l-.13965 37.56689h-119.82031v-37.70654c0-1.68457.16309-3.24365 2.87842-3.24365z" fill="#aab2ab"/><g transform="matrix(.872921 0 0 .872921 50.12536 143.2144)"><path cx="296.35416" cy="264.3577" d="m187.20944-55.6792c.00558 8.68024-7.02786 15.72095-15.7081 15.72708-8.68021.00504-15.72205-7.02786-15.72708-15.70804 0-.00671 0-.01233 0-.01904-.00504-8.68134 7.02783-15.72205 15.70807-15.72711 8.68134-.00562 15.72208 7.02789 15.72711 15.70807z" fill="#fff" rx="22.939548" ry="22.939548" type="arc"/><path d="m473.88455-167.54724c3.48541 3.48596 5.22839 7.75391 5.22839 12.80273 0 5.04938-1.7128 9.27148-5.13834 12.66736-3.63531 3.5766-7.93179 5.36432-12.88947 5.36432-4.89777 0-9.11987-1.77261-12.6651-5.31955-3.54584-3.54581-5.31845-7.78299-5.31845-12.71213 0-4.92859 1.77261-9.19598 5.31845-12.80273 3.4552-3.48651 7.67725-5.22894 12.6651-5.22894 5.04829 0 9.31401 1.74243 12.79942 5.22894zm-23.11798 2.34485c-2.94675 2.97638-4.41956 6.46289-4.41956 10.46234 0 3.99835 1.45828 7.4552 4.37424 10.37067 2.91653 2.9165 6.38849 4.37476 10.41705 4.37476 4.02853 0 7.53018-1.47281 10.50656-4.41901 2.8259-2.73584 4.23941-6.17706 4.23941-10.32642 0-4.11804-1.43646-7.61292-4.30768-10.48474-2.87064-2.87067-6.34988-4.30652-10.43829-4.30652-4.08837 0-7.54638 1.44318-10.37173 4.32892zm7.75449 8.70312c-.45032-.98163-1.12433-1.47223-2.02325-1.47223-1.58914 0-2.38342 1.06952-2.38342 3.2085 0 2.13959.79428 3.20911 2.38342 3.20911 1.04938 0 1.79895-.5213 2.24866-1.56512l2.20276 1.17303c-1.04993 1.86548-2.62506 2.79901-4.72549 2.79901-1.6199 0-2.91763-.4967-3.89206-1.48956-.97607-.99341-1.46274-2.36273-1.46274-4.10797 0-1.71558.50229-3.07709 1.50748-4.08563 1.00519-1.00793 2.25705-1.51251 3.75781-1.51251 2.22012 0 3.80984.87488 4.77081 2.62286zm10.36334 0c-.45087-.98163-1.11148-1.47223-1.98239-1.47223-1.62106 0-2.43213 1.06952-2.43213 3.2085 0 2.13959.81107 3.20911 2.43213 3.20911 1.05103 0 1.78717-.5213 2.20724-1.56512l2.25201 1.17303c-1.04825 1.86548-2.62119 2.79901-4.71768 2.79901-1.61771 0-2.91263-.4967-3.88647-1.48956-.97217-.99341-1.45938-2.36273-1.45938-4.10797 0-1.71558.49448-3.07709 1.48288-4.08563.98782-1.00793 2.24527-1.51251 3.77347-1.51251 2.21619 0 3.80368.87488 4.76132 2.62286z" transform="translate(-289.6157 99.0653)"/></g><path d="m297.29639 74.91064h-116.22951c-1.24658 0-2.26074 1.01465-2.26074 2.26123v39.49561c0 .28174.22852.51074.51025.51074h119.73c.28174 0 .51074-.229.51074-.51074v-39.4956c0-1.24659-1.01416-2.26124-2.26074-2.26124zm-116.22951 1.02149h116.22951c.68359 0 1.23926.55615 1.23926 1.23975v27.41846h-83.07375c-3.04492 5.50537-8.91113 9.24365-15.64355 9.24365-6.73535 0-12.6001-3.73486-15.64355-9.24365h-4.34814c0-11.49902 0-27.41846 0-27.41846-.00002-.6836.55663-1.23975 1.24022-1.23975z"/><g enable-background="new" fill="#fff"><path d="m265.60986 112.8833c.08008.15576.1875.28174.32129.37842.13379.09619.29004.16797.46973.21436.18066.04688.36719.07031.55957.07031.12988 0 .26953-.01074.41895-.03271.14844-.02148.28809-.06396.41895-.12598.12988-.06201.23926-.14795.3252-.25684.08789-.10889.13086-.24707.13086-.41553 0-.18018-.05762-.32617-.17285-.43848-.11426-.1123-.26562-.20508-.45215-.28027-.18555-.07422-.39746-.13965-.63281-.1958-.23633-.05615-.47559-.11816-.71777-.18701-.24902-.06201-.49121-.13818-.72754-.22852-.23535-.08984-.44727-.20703-.63379-.3501s-.33691-.32178-.45215-.53662c-.11426-.21484-.17188-.47461-.17188-.7793 0-.34277.07324-.63965.21875-.8916.14648-.25195.33789-.46191.57422-.63037.23535-.16797.50293-.29248.80176-.37354.29785-.08057.59668-.12109.89453-.12109.34863 0 .68262.03906 1.00293.11719.31934.07764.60449.2041.85254.37842.24902.17432.44629.39697.59277.66797.14551.271.21875.59961.21875.98535h-1.42188c-.0127-.19922-.05469-.36426-.125-.49463-.07129-.13086-.16602-.2334-.2832-.30859-.11816-.07422-.25293-.12744-.4043-.1582-.15234-.03125-.31738-.04688-.49707-.04688-.11719 0-.23535.0127-.35254.03711-.11816.02539-.22461.06885-.32031.13086-.09668.0625-.17578.14014-.2373.2334-.06152.09375-.09277.21191-.09277.35498 0 .13086.02441.23682.07422.31738.0498.08105.14844.15576.29395.22412s.34766.13721.60547.20557.59473.15576 1.01172.26123c.12402.0249.2959.07031.5166.13574s.43945.16943.65723.3125c.21777.14355.40527.33496.56445.57422.1582.23975.2373.54639.2373.91992 0 .30518-.05957.58838-.17773.84961-.11816.26172-.29395.4873-.52734.67676-.2334.19043-.52246.33789-.86719.44385-.3457.10596-.74609.15869-1.19922.15869-.36719 0-.72363-.04541-1.06934-.13574-.34473-.09033-.65039-.23242-.91504-.42578-.26367-.19336-.47363-.43994-.62988-.73877-.15527-.29932-.22949-.65381-.22363-1.06494h1.42188c-.00003.22412.04001.41406.12106.56933z"/><path d="m273.8667 107.8667 2.49316 6.66406h-1.52246l-.50391-1.48438h-2.49316l-.52246 1.48438h-1.47461l2.52051-6.66406zm.08398 4.08594-.83984-2.44336h-.01855l-.86914 2.44336z"/></g><g enable-background="new" fill="#fff"><path d="m239.17821 107.8667c.31738 0 .60742.02832.86914.08398.26172.05615.48633.14795.67383.27539.18652.12744.33203.29688.43457.5083s.1543.47266.1543.78369c0 .33594-.07617.61523-.22949.83936-.15234.22412-.37891.40723-.67773.55029.41211.11816.71973.3252.92285.62109s.30469.65234.30469 1.06934c0 .33594-.06543.62695-.19629.87305-.13086.24561-.30762.44629-.52832.60205-.22168.15576-.47461.271-.75781.34521-.28418.0752-.5752.1123-.875.1123h-3.23633v-6.66406h3.14159zm-.1875 2.69531c.26172 0 .47656-.06201.64551-.18604.16797-.12451.25195-.32568.25195-.60498 0-.15527-.02832-.28271-.08398-.38184-.05664-.09961-.13086-.17676-.22461-.23291-.09375-.05566-.20117-.09473-.32227-.11621-.12207-.02197-.24805-.03271-.37891-.03271h-1.37305v1.55469zm.08593 2.82813c.14355 0 .28027-.01367.41113-.04199.13086-.02783.24707-.07471.34668-.13965.09961-.06543.17871-.1543.23828-.26611s.08887-.25488.08887-.4292c0-.3418-.09668-.58594-.29004-.73193s-.44922-.21924-.7666-.21924h-1.59961v1.82812z"/><path d="m241.88914 107.8667h1.64355l1.56055 2.63184 1.55078-2.63184h1.63379l-2.47363 4.10645v2.55762h-1.46875v-2.59473z"/></g><g transform="matrix(.624995 0 0 .624995 391.2294 176.9332)"><path cx="475.97119" cy="252.08646" d="m-175.0083-139.1153c.00626 9.4118-7.61725 17.04779-17.02982 17.05481-9.41101.00708-17.047-7.61725-17.05481-17.02979 0-.00781 0-.01721 0-.02502-.00626-9.41254 7.6188-17.047 17.02982-17.05481 9.41257-.00702 17.04855 7.61804 17.05481 17.02985z" fill="#fff" rx="29.209877" ry="29.209877" type="arc"/><g transform="translate(-23.9521 -89.72962)"><path d="m-168.2204-68.05536c-5.17194 0-9.54852 1.80469-13.13135 5.41333-3.67661 3.73444-5.51413 8.1532-5.51413 13.25635s1.83752 9.49152 5.51413 13.1626c3.67502 3.67194 8.05316 5.50787 13.13135 5.50787 5.14066 0 9.59537-1.85156 13.36728-5.55475 3.55005-3.51562 5.3266-7.88831 5.3266-13.11572 0-5.22662-1.8078-9.64697-5.42191-13.25635-3.61407-3.60864-8.03756-5.41333-13.27197-5.41333zm.04688 3.36017c4.23752 0 7.836 1.49298 10.79697 4.48053 2.98907 2.9563 4.48441 6.56567 4.48441 10.82898 0 4.29382-1.46252 7.85712-4.39224 10.68915-3.08438 3.04926-6.71411 4.57349-10.88913 4.57349-4.17505 0-7.7735-1.5094-10.79541-4.52661-3.02188-3.01953-4.53284-6.59692-4.53284-10.73602 0-4.13831 1.52658-7.74847 4.57971-10.82898 2.92815-2.98756 6.51098-4.48054 10.74853-4.48054z"/><path d="m-176.49548-52.02087c.74377-4.69769 4.05161-7.20862 8.1954-7.20862 5.96097 0 9.59225 4.32501 9.59225 10.09229 0 5.62738-3.86411 9.99927-9.686 9.99927-4.00473 0-7.58914-2.46484-8.24228-7.30084h4.70319c.14062 2.51099 1.77032 3.39459 4.09845 3.39459 2.65317 0 4.37817-2.4649 4.37817-6.23291 0-3.95233-1.49063-6.04535-4.28598-6.04535-2.04846 0-3.8172.74457-4.19064 3.30157l1.36874-.00702-3.70316 3.7016-3.7016-3.7016z"/></g></g><circle cx="242.56226" cy="90.224609" fill="#fff" r="10.8064"/><path d="m245.68994 87.09766c0-.4165-.33789-.75342-.75391-.75342h-4.77246c-.41602 0-.75391.33691-.75391.75342v4.77295h1.33105v5.65234h3.61719v-5.65234h1.33203v-4.77295z"/><circle cx="242.5498" cy="84.083008" r="1.63232"/><path clip-rule="evenodd" d="m242.53467 78.31836c-3.23145 0-5.96826 1.12744-8.20752 3.38379-2.29785 2.33301-3.44629 5.09521-3.44629 8.28418s1.14844 5.93213 3.44629 8.22705c2.29785 2.29443 5.03418 3.44189 8.20752 3.44189 3.21289 0 5.99805-1.15674 8.35352-3.47168 2.2207-2.19678 3.33008-4.92969 3.33008-8.19727s-1.12891-6.02881-3.3877-8.28418c-2.25879-2.25634-5.02442-3.38378-8.2959-3.38378zm.02929 2.09961c2.64844 0 4.89746.93359 6.74707 2.80078 1.87012 1.84717 2.80469 4.10352 2.80469 6.76758 0 2.68359-.91504 4.91113-2.74609 6.68066-1.92773 1.90576-4.19629 2.8584-6.80566 2.8584s-4.8584-.94287-6.74658-2.82959c-1.88965-1.88623-2.8335-4.12256-2.8335-6.70947 0-2.58643.9541-4.84229 2.8623-6.76758 1.83057-1.86719 4.07031-2.80078 6.71777-2.80078z" fill-rule="evenodd"/></g></svg>