<svg fill="none" height="16" viewBox="0 0 22 16" width="22" xmlns="http://www.w3.org/2000/svg"><path d="m21.538 2.50286c-.253-.98286-1.001-1.760003-1.947-2.02286-1.716-.4799999-8.591-.48-8.591-.48s-6.875.0000001-8.591.48c-.946.262857-1.694 1.04-1.947 2.02286-.4619999 1.78285-.462 5.49714-.462 5.49714s.0000001 3.7143.462 5.4971c.253.9829 1.001 1.76 1.947 2.0229 1.716.48 8.591.48 8.591.48s6.875 0 8.591-.48c.946-.2629 1.694-1.04 1.947-2.0229.462-1.7828.462-5.4971.462-5.4971s0-3.71429-.462-5.49714zm-12.738 8.92574v-6.85717l5.72 3.42857z" fill="#80868b"/></svg>