<svg width="22" height="16" viewBox="0 0 22 16" fill="none" xmlns="http://www.w3.org/2000/svg">
<path d="M21.538 2.50286C21.285 1.52 20.537 0.742857 19.591 0.48C17.875 1.02179e-07 11 0 11 0C11 0 4.125 1.02179e-07 2.409 0.48C1.463 0.742857 0.715 1.52 0.462 2.50286C9.83477e-08 4.28571 0 8 0 8C0 8 9.83477e-08 11.7143 0.462 13.4971C0.715 14.48 1.463 15.2571 2.409 15.52C4.125 16 11 16 11 16C11 16 17.875 16 19.591 15.52C20.537 15.2571 21.285 14.48 21.538 13.4971C22 11.7143 22 8 22 8C22 8 22 4.28571 21.538 2.50286ZM8.8 11.4286V4.57143L14.52 8L8.8 11.4286Z" fill="#80868B"/>
</svg>
